<svg version="1.2" xmlns="http://www.w3.org/2000/svg" viewBox="0 0 663 404" width="663" height="404"><style>.a{fill:#7e3aef}</style><path fill-rule="evenodd" class="a" d="m346.8 0.6c0.7 1.1 5.2 8.9 9.9 17.4 4.7 8.5 12.5 22.5 17.3 31 4.8 8.5 12.1 21.6 16.2 29 4.2 7.4 11.2 20 15.7 28 5.7 10.3 7.7 14.7 6.8 15.2-0.6 0.4-8.6 3.6-17.7 7.3-9.1 3.6-16.8 6.5-17.3 6.5-0.4 0-7-12.9-14.8-28.7-7.7-15.9-14.7-29.6-15.5-30.5-1.1-1.5-1.7-1.6-2.8-0.5-0.7 0.6-9.3 17.6-36.7 74.2l-35.2 23.2c-19.4 12.7-35.3 23.1-35.5 23-0.1-0.1 1.7-3.6 3.9-7.7 2.3-4.1 7.7-13.8 11.9-21.5 4.3-7.7 12.8-23.2 19-34.5 6.2-11.3 13.8-25.2 17-31 3.1-5.8 13.8-25.1 23.7-43 9.9-17.9 21.3-38.5 25.4-45.9 6.7-12 7.5-13.2 8.7-11.5zm162.6 97.5c0.5-0.1 0.7 0.1 0.5 0.3-0.2 0.2-8.3 5.2-17.9 11.2-9.6 5.9-24.3 14.8-32.5 19.9-8.3 5-28.5 17.4-45 27.4-16.5 10.1-35 21.4-41 25.1-6.1 3.7-21.6 13.2-34.5 21.1-12.9 7.8-31.6 19.2-41.5 25.2-9.9 6.1-21.6 13.2-26 15.9-7.7 4.6-8.2 4.8-13.5 4.2-3.3-0.3-6.7-0.1-8.5 0.6-1.7 0.6-4 2.1-5.3 3.3-1.3 1.2-3.3 4.4-4.6 7.2-1.3 2.9-3.7 6-5.7 7.5-1.9 1.3-9.7 5.7-17.4 9.6-7.7 3.9-16.7 8.7-20 10.7-3.3 1.9-6.1 3.5-6.3 3.4-0.2-0.1 2.1-4.5 5-9.9 4.1-7.5 6.2-10.2 9.3-12.1 2.2-1.3 10.5-6.5 18.5-11.4 8-4.9 25.3-15.7 38.5-24 13.2-8.2 26.9-17 30.5-19.4 4.7-3.2 6.6-5.1 6.8-6.9 0.1-1.4-0.4-3.5-1.3-4.8-0.8-1.2-2.4-2.2-3.5-2.2-1.1 0-9.8 4.8-19.3 10.6-9.4 5.9-26 16.2-36.7 22.9-10.7 6.7-22.7 14.1-26.5 16.4-3.9 2.3-14.9 9-24.5 15-14.7 9-17.8 11.4-19.6 14.7-1.7 3.2-2.6 3.9-5.5 4.2-1.9 0.1-4-0.3-4.7-1-0.7-0.7-1.3-2.7-1.3-4.3 0-1.7 0.8-3.7 1.7-4.5 1.2-1.1 2.5-1.3 5.3-0.7 2 0.5 4.3 0.9 5.1 0.9 0.8 0 5.1-2.3 9.5-5.1 4.4-2.7 11.4-7.1 15.5-9.5 4.1-2.5 16.3-10.1 27.1-16.8 10.8-6.8 21.6-14 24-16.1 2.4-2.2 3.7-3.6 2.9-3.1-0.8 0.4-4.4 1.1-8 1.6-3.6 0.5-10.3 2-15 3.4-5.3 1.6-12.1 4.8-18 8.4-5.2 3.2-16.4 10.1-24.8 15.4-8.3 5.3-16 9.6-17 9.6-0.9 0 1.9-2.2 6.3-4.8 4.4-2.7 14.7-9.3 23-14.8 8.2-5.5 34.5-22.7 58.2-38.2 23.8-15.5 43.5-28 43.8-27.7 0.3 0.3 0 1.4-0.5 2.5-0.6 1.1-1 2.9-1 4 0 1.1 0.6 2.2 1.2 2.4 0.7 0.2 7.1-2.1 14.3-5.1 7.1-3 22.9-9.5 35-14.5 12.1-5 32.8-13.4 46-18.8 13.2-5.4 32.8-13.4 43.5-17.9 10.7-4.4 31.9-13.2 47-19.5 15.1-6.3 27.9-11.5 28.4-11.5zm-70.9 61.2c0.5 0.2 2.3 2.3 3.8 4.8 1.6 2.4 5.2 8.7 8.1 13.9 2.9 5.2 9.1 16.3 13.7 24.5 4.7 8.3 13.9 24.4 20.3 36 6.5 11.5 14.9 26.4 18.6 33 3.7 6.6 7.5 13.5 8.4 15.3 1 2 1.2 3.4 0.6 3.7-0.6 0.3-9.9-3.7-20.8-8.8-10.8-5.2-26.2-12.4-48.7-22.9l-19-37.4c-16.9-33.3-18.9-37.7-18-40.1 0.7-1.8 5.6-5.5 16.5-12.4 8.5-5.4 15.9-9.7 16.5-9.6zm-57.4 41.7c0.8-0.1 6.2 5.2 12 11.7 5.9 6.5 15 16.6 20.3 22.6 5.3 5.9 9.1 10.6 8.4 10.4-0.7-0.1-1.8-0.7-2.5-1.2-0.8-0.6-2-1.6-2.8-2.3-0.8-0.6-1.6-1-1.8-0.7-0.1 0.3-4.7-2-10.2-5.1-5.5-3.1-12-6.8-14.5-8.2-2.5-1.4-5.3-3.5-6.2-4.6-1-1.2-1.8-3.1-1.8-4.4 0-1.2-0.4-2.2-0.8-2.2-0.4 0-1.4 0.6-2.1 1.2-0.7 0.7-1.2 0.8-1.1 0.3 0.2-0.6 0.1-1.5 0-2-0.1-0.6-0.1-2.8 0-5 0.1-2.2 0.7-4.6 1.3-5.4 1-1.2 0.8-1.2-1.3-0.1-2.1 1.1-2.3 1.1-1.3-0.1 0.7-0.8 1-1.8 0.5-2.2-0.4-0.5-0.3-0.8 0.3-0.7 0.5 0.1 1.6 0.2 2.3 0.1 0.6 0 0.9-0.6 0.6-1.1-0.3-0.6 0-1 0.7-1zm-160.2 5.6c0.3 0.4-0.2 1.1-1.3 1.8-1 0.6-5.3 3.3-9.5 6-4.2 2.7-12.7 8-18.9 11.8-6.1 3.7-12 6.8-13 6.8-1.2 0-1.1-0.4 0.8-1.3 1.4-0.8 6.5-3.9 11.5-6.9 4.9-3 13.7-8.5 19.4-12.1 5.8-3.7 10.7-6.4 11-6.1zm-74.6 21.4c1.2-0.1 3.4 1.1 4.9 2.5 2.6 2.3 3.6 2.5 22.3 2.9l-10.4 0.5c-9.3 0.5-10.5 0.8-12 2.9-0.9 1.3-2.6 2.3-3.9 2.2-1.2 0-3.1-0.5-4.2-1-1.3-0.6-2-2-2.1-3.9 0-1.6 0.7-3.7 1.6-4.5 0.9-0.9 2.6-1.6 3.8-1.6zm-25.7 27c1.4 0 3.6 1.3 5.4 3.2 2.8 3 3.7 3.3 18.5 4.5l-7.8 0.1c-5.9 0.2-8.6 0.7-11.7 2.4-3.7 2.1-4.2 2.2-6.7 0.8-1.9-1.1-2.9-2.5-3.1-4.5-0.2-1.8 0.3-3.7 1.3-4.8 0.9-0.9 2.7-1.7 4.1-1.7zm-88.5 92h11.9l2.8 5.2c1.6 2.9 7.9 13.8 14.1 24.3 6.2 10.4 12.2 20.5 15.1 25.5h-9.5l-13.1-22.2c-11-18.6-13.5-22.3-15.4-22.3-1.9 0-3.6 2.1-8.6 10.5-3.5 5.8-6.3 11.3-6.4 12.2 0 1.1 0.9 2 2.2 2.3 1.3 0.3 7.2 0.6 13.2 0.8 7.7 0.1 11 0.6 11.3 1.4 0.2 1-3 1.3-14 1.3-12.5-0.1-14.5 0.2-16.7 1.8-1.4 1.1-4.1 4.7-9.5 14.2h-9.5l2.1-3.8c1.2-2 5.5-9.6 9.7-16.7 4.1-7.2 10.4-17.8 13.9-23.8zm56.9 0h64v8h-12.4c-9.7 0-12.8 0.4-14 1.5-1.4 1.3-1.6 4.9-1.6 45.5h-8v-22c0-18.2-0.3-22.2-1.5-23.5-1.2-1.1-4.2-1.5-26.5-1.5zm91 0h8v10.5c0 8 0.3 10.9 1.5 12 1.2 1.3 5.1 1.5 21.9 1.5 16.8 0 20.7-0.2 22-1.5 1.2-1.1 1.6-3.7 1.6-22.5h8v55h-8v-10c0-7.5-0.4-10.3-1.5-11.5-1.2-1.2-5.1-1.5-21.9-1.5-16.8 0-20.7 0.3-22 1.5-1.3 1.2-1.6 3.8-1.6 21.5h-8zm120.5 0l11.8 0.5 15.8 26.8c8.8 14.7 15.9 27 15.9 27.2 0 0.3-2.1 0.4-9.5 0l-7.2-12c-4-6.6-9.9-16.5-13-22.2-3.2-5.6-6.4-10.4-7.1-10.7-0.6-0.3-1.5-0.4-2-0.2-0.4 0.2-3.5 5.3-6.9 11.3-3.5 5.9-6.3 11.6-6.3 12.6 0 1 0.9 2 2.2 2.3 1.3 0.2 7.2 0.6 13.2 0.7 7.7 0.2 11 0.6 11.3 1.5 0.2 1-3.2 1.2-14.7 1.2-14.3 0-15.1 0.2-17.1 2.3-1.2 1.2-3.5 4.7-5.3 7.7-3.1 5.5-3.1 5.6-13.6 6l11.1-18.7c6.1-10.3 13.4-22.7 16.2-27.5zm69.6 0l27.7 0.1c20.1 0 28.4 0.3 30.3 1.2 1.3 0.7 3.2 2.8 4.1 4.7 1.4 2.9 1.6 5.3 1 13.7-0.5 8.2-1 10.5-2.6 12.3-1.5 1.5-3.2 2.1-6.5 2.1-2.5 0-5.6 0.6-9.2 2.4l4.3 4.2c2.4 2.2 6.8 6.3 15.4 14l-11 1.1-21-20.7h-8.3c-8.1-0.1-8.2-0.1-8.2-5.1l17.4-0.2c15.3-0.2 17.7-0.5 19.3-2 1.2-1.3 1.9-3.8 2.2-8.5 0.3-5.9 0.1-7.1-1.8-9-2.1-2.2-2.7-2.3-22.1-2.3-16.3 0-20.2 0.3-21.5 1.5-1.3 1.3-1.5 4.8-1.5 45.5h-8zm95.5 0l11.8 21.3c6.5 11.7 12.5 21.9 13.2 22.7 0.8 0.9 1.9 1.3 2.7 0.9 0.7-0.3 4-5.5 7.4-11.5 3.4-6 8.9-15.9 18.4-33.4h10l-2.5 4.3c-1.3 2.3-4.3 7.8-6.8 12.2-2.4 4.4-7.9 14.3-12.2 22-4.3 7.7-8.4 14.7-9.1 15.5-0.9 1.1-2.8 1.5-11.9 1l-6.4-11.7c-3.6-6.5-9.9-17.8-14.1-25.3-4.3-7.4-8.3-14.5-9-15.7-1.1-2.2-1-2.3 8.5-2.3zm89.5 0h8v55h-8zm35.5 0.1l12.5-0.1 10.5 10c7 6.8 11.2 10 12.7 10 1.5 0 5.8-3.5 22.8-20l13.5 0.1-5.6 5.2c-3 2.9-9.2 8.7-13.7 13-4.5 4.3-8.2 8.5-8.3 9.5 0 1 6 7.4 13.4 14.2 12.4 11.7 13.1 12.6 10.5 12.8-1.6 0.1-2.8 0.7-2.8 1.2 0 0.6-1.4 1-3 1-2.5 0-4.9-1.8-14-11-6.1-6-11.8-11-12.8-11-1 0-4.4 2.9-7.7 6.4-3.3 3.5-8.4 8.5-11.3 11-4.4 3.9-5.9 4.6-9.5 4.7-2.7 0-4.8-0.6-5.7-1.6-1.4-1.4-1-2.1 4-6.5 3-2.7 6.4-5.8 7.5-6.8 1.1-1 4.8-4.2 8.2-7 4.4-3.6 6.2-5.8 6.1-7.2-0.2-1.1-4.1-5.8-8.8-10.3-4.7-4.5-10.8-10.4-13.5-12.9z"/></svg>